<svg style="position: absolute; width: 0; height: 0;" width="0" height="0" version="1.1" xmlns="http://www.w3.org/2000/svg" xmlns:xlink="http://www.w3.org/1999/xlink">
<defs>
<symbol id="icon-play3" viewBox="0 0 1024 1024">
	<title>play3</title>
	<path class="path1" d="M192 128l640 384-640 384z"></path>
</symbol>
<symbol id="icon-pause2" viewBox="0 0 1024 1024">
	<title>pause2</title>
	<path class="path1" d="M128 128h320v768h-320zM576 128h320v768h-320z"></path>
</symbol>
<symbol id="icon-stop2" viewBox="0 0 1024 1024">
	<title>stop2</title>
	<path class="path1" d="M128 128h768v768h-768z"></path>
</symbol>
<symbol id="icon-first" viewBox="0 0 1024 1024">
	<title>first</title>
	<path class="path1" d="M128 896v-768h128v352l320-320v320l320-320v704l-320-320v320l-320-320v352z"></path>
</symbol>
<symbol id="icon-last" viewBox="0 0 1024 1024">
	<title>last</title>
	<path class="path1" d="M896 128v768h-128v-352l-320 320v-320l-320 320v-704l320 320v-320l320 320v-352z"></path>
</symbol>
<symbol id="icon-volume-high" viewBox="0 0 1088 1024">
	<title>volume-high</title>
	<path class="path1" d="M890.040 922.040c-12.286 0-24.566-4.686-33.942-14.056-18.744-18.746-18.744-49.136 0-67.882 87.638-87.642 135.904-204.16 135.904-328.1 0-123.938-48.266-240.458-135.904-328.098-18.744-18.746-18.744-49.138 0-67.882s49.138-18.744 67.882 0c105.77 105.772 164.022 246.4 164.022 395.98s-58.252 290.208-164.022 395.98c-9.372 9.372-21.656 14.058-33.94 14.058zM719.53 831.53c-12.286 0-24.566-4.686-33.942-14.056-18.744-18.744-18.744-49.136 0-67.882 131.006-131.006 131.006-344.17 0-475.176-18.744-18.746-18.744-49.138 0-67.882 18.744-18.742 49.138-18.744 67.882 0 81.594 81.59 126.53 190.074 126.53 305.466 0 115.39-44.936 223.876-126.53 305.47-9.372 9.374-21.656 14.060-33.94 14.060v0zM549.020 741.020c-12.286 0-24.568-4.686-33.942-14.058-18.746-18.746-18.746-49.134 0-67.88 81.1-81.1 81.1-213.058 0-294.156-18.746-18.746-18.746-49.138 0-67.882s49.136-18.744 67.882 0c118.53 118.53 118.53 311.392 0 429.922-9.372 9.368-21.656 14.054-33.94 14.054z"></path>
	<path class="path2" d="M416.006 960c-8.328 0-16.512-3.25-22.634-9.374l-246.626-246.626h-114.746c-17.672 0-32-14.326-32-32v-320c0-17.672 14.328-32 32-32h114.746l246.626-246.628c9.154-9.154 22.916-11.89 34.874-6.936 11.958 4.952 19.754 16.622 19.754 29.564v832c0 12.944-7.796 24.612-19.754 29.564-3.958 1.64-8.118 2.436-12.24 2.436z"></path>
</symbol>
<symbol id="icon-volume-medium" viewBox="0 0 1024 1024">
	<title>volume-medium</title>
	<path class="path1" d="M719.53 831.53c-12.286 0-24.566-4.686-33.942-14.056-18.744-18.744-18.744-49.136 0-67.882 131.006-131.006 131.006-344.17 0-475.176-18.744-18.746-18.744-49.138 0-67.882 18.744-18.742 49.138-18.744 67.882 0 81.594 81.59 126.53 190.074 126.53 305.466 0 115.39-44.936 223.876-126.53 305.47-9.372 9.374-21.656 14.060-33.94 14.060v0zM549.020 741.020c-12.286 0-24.566-4.686-33.942-14.058-18.746-18.746-18.746-49.134 0-67.88 81.1-81.1 81.1-213.058 0-294.156-18.746-18.746-18.746-49.138 0-67.882s49.136-18.744 67.882 0c118.53 118.53 118.53 311.392 0 429.922-9.372 9.368-21.656 14.054-33.94 14.054z"></path>
	<path class="path2" d="M416.006 960c-8.328 0-16.512-3.25-22.634-9.374l-246.626-246.626h-114.746c-17.672 0-32-14.326-32-32v-320c0-17.672 14.328-32 32-32h114.746l246.626-246.628c9.154-9.154 22.916-11.89 34.874-6.936 11.958 4.952 19.754 16.622 19.754 29.564v832c0 12.944-7.796 24.612-19.754 29.564-3.958 1.64-8.118 2.436-12.24 2.436z"></path>
</symbol>
<symbol id="icon-volume-low" viewBox="0 0 1024 1024">
	<title>volume-low</title>
	<path class="path1" d="M549.020 741.020c-12.286 0-24.566-4.686-33.942-14.058-18.746-18.746-18.746-49.134 0-67.88 81.1-81.1 81.1-213.058 0-294.156-18.746-18.746-18.746-49.138 0-67.882s49.136-18.744 67.882 0c118.53 118.53 118.53 311.392 0 429.922-9.372 9.368-21.656 14.054-33.94 14.054z"></path>
	<path class="path2" d="M416.006 960c-8.328 0-16.512-3.25-22.634-9.374l-246.626-246.626h-114.746c-17.672 0-32-14.326-32-32v-320c0-17.672 14.328-32 32-32h114.746l246.626-246.628c9.154-9.154 22.916-11.89 34.874-6.936 11.958 4.952 19.754 16.622 19.754 29.564v832c0 12.944-7.796 24.612-19.754 29.564-3.958 1.64-8.118 2.436-12.24 2.436z"></path>
</symbol>
<symbol id="icon-volume-mute" viewBox="0 0 1024 1024">
	<title>volume-mute</title>
	<path class="path1" d="M416.006 960c-8.328 0-16.512-3.25-22.634-9.374l-246.626-246.626h-114.746c-17.672 0-32-14.326-32-32v-320c0-17.672 14.328-32 32-32h114.746l246.626-246.628c9.154-9.154 22.916-11.89 34.874-6.936 11.958 4.952 19.754 16.622 19.754 29.564v832c0 12.944-7.796 24.612-19.754 29.564-3.958 1.64-8.118 2.436-12.24 2.436z"></path>
</symbol>
<symbol id="icon-volume-mute2" viewBox="0 0 1024 1024">
	<title>volume-mute2</title>
	<path class="path1" d="M960 619.148v84.852h-84.852l-107.148-107.148-107.148 107.148h-84.852v-84.852l107.148-107.148-107.148-107.148v-84.852h84.852l107.148 107.148 107.148-107.148h84.852v84.852l-107.148 107.148 107.148 107.148z"></path>
	<path class="path2" d="M416.006 960c-8.328 0-16.512-3.25-22.634-9.374l-246.626-246.626h-114.746c-17.672 0-32-14.326-32-32v-320c0-17.672 14.328-32 32-32h114.746l246.626-246.628c9.154-9.154 22.916-11.89 34.874-6.936 11.958 4.952 19.754 16.622 19.754 29.564v832c0 12.944-7.796 24.612-19.754 29.564-3.958 1.64-8.118 2.436-12.24 2.436z"></path>
</symbol>
<symbol id="icon-loop" viewBox="0 0 1024 1024">
	<title>loop</title>
	<path class="path1" d="M128 320h640v192l256-256-256-256v192h-768v384h128zM896 704h-640v-192l-256 256 256 256v-192h768v-384h-128z"></path>
</symbol>
<symbol id="icon-facebook2" viewBox="0 0 1024 1024">
	<title>facebook2</title>
	<path class="path1" d="M853.35 0h-682.702c-94.25 0-170.648 76.42-170.648 170.686v682.63c0 94.266 76.398 170.684 170.648 170.684h341.352v-448h-128v-128h128v-96c0-88.366 71.634-160 160-160h160v128h-160c-17.674 0-32 14.328-32 32v96h176l-32 128h-144v448h213.35c94.25 0 170.65-76.418 170.65-170.684v-682.63c0-94.266-76.4-170.686-170.65-170.686z"></path>
</symbol>
<symbol id="icon-twitter2" viewBox="0 0 1024 1024">
	<title>twitter2</title>
	<path class="path1" d="M853.342 0h-682.656c-93.874 0-170.686 76.81-170.686 170.69v682.624c0 93.936 76.812 170.686 170.686 170.686h682.656c93.876 0 170.658-76.75 170.658-170.69v-682.62c0-93.88-76.782-170.69-170.658-170.69zM766.478 381.48c0.252 5.632 0.38 11.296 0.38 16.988 0 173.51-132.070 373.588-373.584 373.588-74.15 0-143.168-21.738-201.276-58.996 10.272 1.218 20.724 1.84 31.322 1.84 61.518 0 118.134-20.992 163.072-56.21-57.458-1.054-105.948-39.020-122.658-91.184 8.018 1.532 16.244 2.36 24.704 2.36 11.976 0 23.578-1.61 34.592-4.61-60.064-12.066-105.326-65.132-105.326-128.75 0-0.554 0-1.104 0.012-1.652 17.7 9.834 37.948 15.742 59.47 16.424-35.232-23.546-58.414-63.736-58.414-109.292 0-24.064 6.476-46.62 17.78-66.010 64.76 79.44 161.51 131.712 270.634 137.19-2.238-9.612-3.4-19.632-3.4-29.924 0-72.512 58.792-131.298 131.304-131.298 37.766 0 71.892 15.944 95.842 41.462 29.908-5.886 58.008-16.814 83.38-31.862-9.804 30.662-30.624 56.394-57.732 72.644 26.56-3.174 51.866-10.232 75.412-20.674-17.594 26.328-39.854 49.454-65.514 67.966z"></path>
</symbol>
<symbol id="icon-youtube3" viewBox="0 0 1024 1024">
	<title>youtube3</title>
	<path class="path1" d="M293.188 0l-69.188 137.234-69.188-137.234h-88.248l124.71 217.314 0.726-0.43v167.116h64v-167.116l0.726 0.43 124.71-217.314z"></path>
	<path class="path2" d="M480 128c17.346 0 32 14.654 32 32v128c0 17.346-14.654 32-32 32s-32-14.654-32-32v-128c0-17.346 14.654-32 32-32zM480 64c-52.8 0-96 43.2-96 96v128c0 52.8 43.2 96 96 96s96-43.2 96-96v-128c0-52.8-43.2-96-96-96v0z"></path>
	<path class="path3" d="M768 64v251.968c-27.922 23.288-64 37.332-64-45.634v-206.334h-64v219.324h0.096c0.986 52.91 12.142 148.168 127.904 70.712v29.964h64v-320h-64z"></path>
	<path class="path4" d="M864 704c-17.644 0-32 14.356-32 32v32h64v-32c0-17.644-14.356-32-32-32z"></path>
	<path class="path5" d="M576 736v168c21.666 21.666 64 24 64-8s0-118 0-150-32-42-64-10z"></path>
	<path class="path6" d="M1018.766 581.54c-2.792-36.862-16.046-66.942-39.778-90.244-23.726-23.298-54.080-35.994-91.068-38.080-69.784-3.478-229.452-5.216-369.716-5.216-140.266 0-311.294 1.738-381.078 5.216-36.986 2.086-67.342 14.782-91.068 38.080-23.728 23.302-36.988 53.382-39.778 90.244-4.188 75.116-6.28 102.352-6.28 139.91 0 37.56 2.092 93.894 6.28 169.012 2.792 36.862 16.050 66.944 39.778 90.244 23.726 23.298 54.082 35.992 91.068 38.080 69.782 3.476 240.81 5.214 381.078 5.214 140.266 0 299.934-1.738 369.716-5.214 36.988-2.088 67.342-14.782 91.068-38.080 23.73-23.3 36.986-53.382 39.778-90.244 3.49-62.598 5.234-118.934 5.234-169.012 0-50.076-1.744-77.314-5.234-139.91zM192 960h-64v-320h-64v-64h192v64h-64v320zM448 960h-64v-29.962c-121.666 68.294-126.918 2.198-127.904-50.712h-0.096v-175.326h64v176.334c0 38.666 36.078 34.924 64 11.634v-187.968h64v256zM704 895.086c0 66.892-68.504 86.402-128 34.39v30.524h-64v-384h64v104c64-64 128-40 128 24s0 121.172 0 191.086zM960 768v32h-128v64c0 17.644 14.356 32 32 32s32-14.356 32-32v-32h64v32c0 52.934-43.066 96-96 96s-96-43.066-96-96v-128c0-52.934 43.066-96 96-96s96 43.066 96 96v32z"></path>
</symbol>
<symbol id="icon-soundcloud" viewBox="0 0 1024 1024">
	<title>soundcloud</title>
	<path class="path1" d="M891.96 514.204c-18.086 0-35.348 3.52-51.064 9.856-10.506-114.358-110.29-204.060-232-204.060-29.786 0-58.682 5.63-84.318 15.164-9.96 3.702-12.578 7.52-12.578 14.916v402.714c0 7.766 6.24 14.234 14.124 14.996 0.336 0.034 363.536 0.21 365.89 0.21 72.904 0 131.986-56.816 131.986-126.894s-59.134-126.902-132.040-126.902zM400 768h32l16-224.22-16-223.78h-32l-16 223.78zM304 768h-32l-16-162.75 16-157.25h32l16 160zM144 768h32l16-128-16-128h-32l-16 128zM16 704h32l16-64-16-64h-32l-16 64z"></path>
</symbol>
</defs>
</svg>
